<svg width="19" height="21" viewBox="0 0 19 21" fill="none" xmlns="http://www.w3.org/2000/svg">
<g clip-path="url(#clip0_1_468)">
<path d="M12.3927 0.123047C12.3084 0.0495606 12.189 0 12.0714 0C12.0468 0 12.0204 0 11.9958 0.00854492H1.20989C0.921891 0.00854492 0.649696 0.124756 0.454769 0.314453C0.258087 0.50415 0.138672 0.760498 0.138672 1.04932V19.9592C0.138672 20.248 0.258087 20.5044 0.453013 20.6941C0.64794 20.8838 0.911355 21 1.20814 21C6.65731 21 11.6306 21 17.0516 21C17.3484 21 17.6118 20.8838 17.8068 20.6941C18.0017 20.5044 18.1211 20.248 18.1211 19.9592V6.07031C18.1299 6.0293 18.1387 5.99683 18.1387 5.9541C18.1387 5.81396 18.0702 5.68921 17.9771 5.59863L12.4524 0.157227C12.4349 0.140137 12.4261 0.133301 12.4103 0.124756H12.3927V0.123047ZM8.6575 9.35327V15.3159C8.6575 15.5706 8.86823 15.7756 9.13692 15.7756C9.39857 15.7756 9.61633 15.5706 9.61633 15.3159V9.3584L11.815 11.2263C12.0099 11.3938 12.3102 11.3784 12.4823 11.1887C12.6544 10.999 12.6386 10.7119 12.4436 10.5444L9.45477 8.00488C9.27038 7.84766 8.99818 7.85278 8.82082 8.01001L5.83721 10.5444C5.64228 10.7119 5.61945 10.999 5.79857 11.1887C5.97067 11.3784 6.27096 11.3938 6.46589 11.2263L8.66453 9.3584L8.6575 9.35327ZM11.5867 0.94165V5.01416C11.5867 5.4021 11.7482 5.75757 12.0116 6.01392C12.2751 6.27026 12.6403 6.42749 13.039 6.42749H17.1465V19.9609C17.1465 19.9866 17.1377 20.019 17.1131 20.0344C17.0956 20.0515 17.071 20.0669 17.0376 20.0669C12.7229 20.0669 5.39818 20.0669 1.20111 20.0669C1.17477 20.0669 1.1414 20.0584 1.1256 20.0344C1.10804 20.0173 1.09223 19.9849 1.09223 19.9609V1.04932C1.09223 1.01685 1.10101 0.991211 1.1256 0.97583C1.14316 0.95874 1.16775 0.943359 1.20111 0.943359H11.5796H11.5867V0.94165ZM12.5455 5.01416V1.60303L16.4915 5.49268H13.0372C12.902 5.49268 12.7826 5.43457 12.6895 5.35254C12.6052 5.2688 12.5455 5.14575 12.5455 5.01416Z" fill="#02EEFB"/>
</g>
<defs>
<clipPath id="clip0_1_468">
<rect width="18" height="21" fill="white" transform="translate(0.138672)"/>
</clipPath>
</defs>
</svg>
