<svg width="29" height="31" viewBox="0 0 29 31" fill="none" xmlns="http://www.w3.org/2000/svg">
<path d="M14.7703 0.927216C6.90948 0.927216 0.540527 7.4497 0.540527 15.5C0.540527 23.5503 6.90948 30.0728 14.7703 30.0728C22.631 30.0728 29 23.5503 29 15.5C29 7.4497 22.631 0.927216 14.7703 0.927216ZM21.3687 10.8402C21.1564 13.1437 20.2269 18.7377 19.7564 21.3173C19.5556 22.4103 19.1654 22.7746 18.7867 22.8099C17.9605 22.8863 17.3351 22.2516 16.5318 21.711C15.2809 20.8708 14.5694 20.3478 13.3588 19.5251C11.953 18.5791 12.8653 18.0561 13.6629 17.2041C13.8752 16.9808 17.5129 13.5902 17.5818 13.2847C17.5933 13.2436 17.599 13.1025 17.5129 13.0261C17.4269 12.9497 17.3064 12.9791 17.2203 12.9968C17.0941 13.0242 15.0935 14.3776 11.2186 17.0572C10.6524 17.4567 10.1379 17.6506 9.6751 17.6389C9.16443 17.6271 8.18901 17.3451 7.46031 17.1042C6.57095 16.8104 5.85946 16.6517 5.92258 16.1464C5.95318 15.8839 6.30701 15.6155 6.98407 15.3413C11.1306 13.4923 13.8962 12.272 15.2809 11.6805C19.2343 9.99994 20.0548 9.70613 20.5884 9.69438C20.7089 9.69438 20.9671 9.72376 21.1392 9.86479C21.2516 9.96594 21.3231 10.1063 21.34 10.2585C21.3711 10.4507 21.3807 10.6458 21.3687 10.8402Z" fill="#312E81"/>
</svg>
