<svg width="30" height="26" viewBox="0 0 30 26" fill="none" xmlns="http://www.w3.org/2000/svg">
<path fill-rule="evenodd" clip-rule="evenodd" d="M30.0006 3.69593C28.8977 4.18924 27.7096 4.51699 26.4689 4.66315C27.74 3.9019 28.7122 2.69548 29.1762 1.25932C27.9881 1.96188 26.6676 2.47737 25.2686 2.75304C24.1436 1.55773 22.5457 0.814758 20.7757 0.814758C17.3769 0.814758 14.6252 3.56801 14.6252 6.96466C14.6252 7.4441 14.6784 7.91304 14.7825 8.36538C9.66842 8.10626 5.13462 5.65802 2.09951 1.9331C1.55395 2.87286 1.26668 3.94021 1.26682 5.02685C1.26682 7.15952 2.34973 9.04582 4.00184 10.1459C2.99365 10.116 2.04528 9.83477 1.21254 9.3791V9.45607C1.21254 12.4386 3.33246 14.9272 6.14942 15.4897C5.63342 15.6298 5.08864 15.7073 4.52726 15.7073C4.12976 15.7073 3.74661 15.6664 3.3657 15.5972C4.1524 18.0398 6.4235 19.8204 9.11314 19.8724C7.00428 21.5245 4.35565 22.5083 1.46829 22.5083C0.970012 22.5083 0.48448 22.4778 -0.000488281 22.4197C2.729 24.1709 5.96229 25.1852 9.43592 25.1852C20.7525 25.1852 26.9462 15.807 26.9462 7.67552C26.9462 7.40534 26.9401 7.14349 26.929 6.87884C28.131 6.01901 29.1729 4.93385 29.9979 3.69865L30.0006 3.69588L30.0006 3.69593Z" fill="#312E81"/>
</svg>
