<svg width="30" height="31" viewBox="0 0 30 31" fill="none" xmlns="http://www.w3.org/2000/svg">
<path d="M25.5067 4.57843C22.7009 1.73297 18.9643 0.167969 14.9933 0.167969C6.79687 0.167969 0.127232 6.91577 0.127232 15.2083C0.127232 17.8572 0.810268 20.4452 2.10938 22.7284L0 30.5195L7.8817 28.4261C10.0513 29.6252 12.4955 30.2553 14.9866 30.2553H14.9933C23.183 30.2553 30 23.5075 30 15.215C30 11.1975 28.3125 7.42389 25.5067 4.57843ZM14.9933 27.7215C12.7701 27.7215 10.5937 27.1185 8.69866 25.9803L8.25 25.7093L3.57589 26.9492L4.82143 22.3354L4.52679 21.8612C3.28795 19.8694 2.63839 17.5727 2.63839 15.2083C2.63839 8.31818 8.18303 2.70856 15 2.70856C18.3013 2.70856 21.4018 4.00934 23.7321 6.37378C26.0625 8.73822 27.4955 11.875 27.4888 15.215C27.4888 22.1119 21.8036 27.7215 14.9933 27.7215ZM21.7701 18.3586C21.4018 18.1689 19.5737 17.261 19.2321 17.1391C18.8906 17.0104 18.6429 16.9494 18.3951 17.3288C18.1473 17.7082 17.4375 18.5483 17.2165 18.8057C17.0022 19.0564 16.7812 19.0903 16.4129 18.9006C14.2299 17.7963 12.7969 16.9291 11.3571 14.4291C10.9754 13.7652 11.7388 13.8126 12.4487 12.3763C12.5692 12.1257 12.5089 11.9089 12.4152 11.7192C12.3214 11.5295 11.5781 9.67993 11.2701 8.92792C10.9688 8.19623 10.6607 8.29785 10.433 8.2843C10.2188 8.27075 9.97098 8.27075 9.72321 8.27075C9.47545 8.27075 9.07366 8.3656 8.73214 8.73822C8.39062 9.11761 7.43304 10.0255 7.43304 11.875C7.43304 13.7245 8.76562 15.5131 8.94643 15.7638C9.13393 16.0145 11.5647 19.8084 15.2946 21.4412C17.6518 22.4709 18.5759 22.559 19.7545 22.3829C20.471 22.2745 21.9509 21.475 22.2589 20.5943C22.567 19.7136 22.567 18.9615 22.4732 18.8057C22.3862 18.6364 22.1384 18.5415 21.7701 18.3586Z" fill="#312E81"/>
</svg>
