<svg width="27" height="24" viewBox="0 0 27 24" fill="none" xmlns="http://www.w3.org/2000/svg">
<path d="M25.5812 4.04103C25.2116 2.61095 24.1263 1.48861 22.7477 1.10846C20.2486 0.414536 13.125 0.414536 13.125 0.414536C13.125 0.414536 6.00141 0.414536 3.50229 1.10846C2.12367 1.48861 1.03837 2.61095 0.668779 4.04103C-5.75456e-08 6.62966 0 12.0241 0 12.0241C0 12.0241 -5.75456e-08 17.4186 0.668779 20.0073C1.03837 21.4373 2.12367 22.5114 3.50229 22.8916C6.00141 23.5855 13.125 23.5855 13.125 23.5855C13.125 23.5855 20.2486 23.5855 22.7477 22.8916C24.1263 22.5114 25.2116 21.4313 25.5812 20.0073C26.25 17.4186 26.25 12.0241 26.25 12.0241C26.25 12.0241 26.25 6.62966 25.5812 4.04103ZM9.8515 16.9238V7.12445L18.223 12.0241L9.8515 16.9238Z" fill="#312E81"/>
</svg>
