<svg width="31" height="31" viewBox="0 0 31 31" fill="none" xmlns="http://www.w3.org/2000/svg">
<g clip-path="url(#clip0_1_153)">
<path d="M0 10V21C0 26.5229 4.47715 31 10 31L21 31C26.5229 31 31 26.5228 31 21V10C31 4.47715 26.5229 0 21 0H10C4.47715 0 0 4.47715 0 10Z" fill="#312E81"/>
<path d="M15.5 7.75C11.2201 7.75 7.75 11.2201 7.75 15.5C7.75 19.7799 11.2201 23.25 15.5 23.25C19.7799 23.25 23.25 19.7799 23.25 15.5C23.25 11.2201 19.7799 7.75 15.5 7.75ZM15.5 20.3438C12.8301 20.3438 10.6562 18.1699 10.6562 15.5C10.6562 12.8282 12.8301 10.6562 15.5 10.6562C18.1699 10.6562 20.3438 12.8282 20.3438 15.5C20.3438 18.1699 18.1699 20.3438 15.5 20.3438Z" fill="#10C5E5"/>
<path d="M24.5 8C25.3284 8 26 7.32843 26 6.5C26 5.67157 25.3284 5 24.5 5C23.6716 5 23 5.67157 23 6.5C23 7.32843 23.6716 8 24.5 8Z" fill="#10C5E5"/>
</g>
<defs>
<clipPath id="clip0_1_153">
<rect width="31" height="31" fill="white"/>
</clipPath>
</defs>
</svg>
