<svg width="24" height="24" viewBox="0 0 24 24" fill="none" xmlns="http://www.w3.org/2000/svg">
<path d="M5.37321 23.625H0.396429V7.85215H5.37321V23.625ZM2.88214 5.70059C1.29107 5.70059 0 4.40332 0 2.83711C0 2.08466 0.303653 1.36303 0.84416 0.83097C1.38467 0.298909 2.11775 0 2.88214 0C3.64653 0 4.37962 0.298909 4.92013 0.83097C5.46063 1.36303 5.76429 2.08466 5.76429 2.83711C5.76429 4.40332 4.47321 5.70059 2.88214 5.70059ZM23.9946 23.625H19.0286V15.9469C19.0286 14.117 18.9911 11.7703 16.4411 11.7703C13.8536 11.7703 13.4571 13.7584 13.4571 15.815V23.625H8.48571V7.85215H13.2589V10.0037H13.3286C13.9929 8.76445 15.6161 7.45664 18.0375 7.45664C23.0732 7.45664 24 10.7209 24 14.9607V23.625H23.9946Z" fill="#312E81"/>
</svg>
