<svg width="30" height="30" viewBox="0 0 30 30" fill="none" xmlns="http://www.w3.org/2000/svg">
<path d="M0 15C0 21.4037 4.01367 26.8711 9.6627 29.0227C9.525 27.8514 9.3791 25.9201 9.69375 24.5654C9.96504 23.4 11.4451 17.1428 11.4451 17.1428C11.4451 17.1428 10.9986 16.2492 10.9986 14.925C10.9986 12.8502 12.2016 11.2998 13.7004 11.2998C14.9754 11.2998 15.59 12.2566 15.59 13.4027C15.59 14.6842 14.7738 16.599 14.3525 18.3756C14.0016 19.8615 15.099 21.0738 16.5639 21.0738C19.2176 21.0738 21.259 18.2748 21.259 14.2354C21.259 10.6588 18.6891 8.16035 15.0199 8.16035C10.773 8.16035 8.2793 11.3467 8.2793 14.6402C8.2793 15.924 8.77266 17.2992 9.39023 18.048C9.46825 18.1305 9.51166 18.2398 9.51152 18.3533C9.51152 18.3943 9.50566 18.4359 9.49453 18.4758C9.38086 18.9486 9.12774 19.9623 9.07969 20.1691C9.01348 20.4416 8.86348 20.5008 8.5793 20.3684C6.71484 19.5006 5.54941 16.7742 5.54941 14.5846C5.54941 9.87305 8.97129 5.54824 15.4143 5.54824C20.5945 5.54824 24.6211 9.23965 24.6211 14.1721C24.6211 19.3184 21.3768 23.4609 16.8721 23.4609C15.358 23.4609 13.9371 22.6729 13.4496 21.7441C13.4496 21.7441 12.7008 24.5965 12.5191 25.2943C12.167 26.6496 11.1891 28.3641 10.5832 29.3379C11.9801 29.7691 13.4625 30 15 30C23.284 30 30 23.2834 30 15C30 6.7166 23.284 0 15 0C6.71602 0 0 6.71602 0 15Z" fill="#312E81"/>
</svg>
