<svg width="24" height="24" viewBox="0 0 24 24" fill="none" xmlns="http://www.w3.org/2000/svg">
<path d="M12.1596 10.62H12.1594H12.1592H12.159H12.1589H12.1587H12.1585H12.1583H12.1582H12.158H12.1578H12.1577H12.1575H12.1573H12.1571H12.157H12.1568H12.1566H12.1564H12.1563H12.1561H12.1559H12.1558H12.1556H12.1554H12.1552H12.1551H12.1549H12.1547H12.1546H12.1544H12.1542H12.1541H12.1539H12.1537H12.1536H12.1534H12.1532H12.153H12.1529H12.1527H12.1525H12.1524H12.1522H12.152H12.1519H12.1517H12.1515H12.1514H12.1512H12.151H12.1509H12.1507H12.1506H12.1504H12.1502H12.1501H12.1499H12.1497H12.1496H12.1494H12.1492H12.1491H12.1489H12.1487H12.1486H12.1484H12.1483H12.1481H12.1479H12.1478H12.1476H12.1475H12.1473H12.1471H12.147H12.1468H12.1466H12.1465H12.1463H12.1462H12.146H12.1458H12.1457H12.1455H12.1454H12.1453C12.0479 10.6102 11.9517 10.6106 11.8625 10.6179C9.53083 10.5116 7.80957 8.68192 7.80957 6.44C7.80957 4.13228 9.69186 2.25 11.9996 2.25C14.3067 2.25 16.1887 4.13136 16.1896 6.43831C16.1805 8.71022 14.4104 10.5398 12.1726 10.62H12.1726H12.1725H12.1725H12.1724H12.1723H12.1723H12.1722H12.1722H12.1721H12.1721H12.172H12.1719H12.1719H12.1718H12.1718H12.1717H12.1716H12.1716H12.1715H12.1715H12.1714H12.1713H12.1713H12.1712H12.1712H12.1711H12.1711H12.171H12.1709H12.1709H12.1708H12.1708H12.1707H12.1706H12.1706H12.1705H12.1705H12.1704H12.1704H12.1703H12.1702H12.1702H12.1701H12.1701H12.17H12.1699H12.1699H12.1698H12.1698H12.1697H12.1696H12.1696H12.1695H12.1695H12.1694H12.1694H12.1693H12.1692H12.1692H12.1691H12.1691H12.169H12.1689H12.1689H12.1688H12.1688H12.1687H12.1687H12.1686H12.1685H12.1685H12.1684H12.1684H12.1683H12.1682H12.1682H12.1681H12.1681H12.168H12.1679H12.1679H12.1678H12.1678H12.1677H12.1677H12.1676H12.1675H12.1675H12.1674H12.1674H12.1673H12.1672H12.1672H12.1671H12.1671H12.167H12.167H12.1669H12.1668H12.1668H12.1667H12.1667H12.1666H12.1665H12.1665H12.1664H12.1664H12.1663H12.1662H12.1662H12.1661H12.1661H12.166H12.166H12.1659H12.1658H12.1658H12.1657H12.1657H12.1656H12.1655H12.1655H12.1654H12.1654H12.1653H12.1653H12.1652H12.1651H12.1651H12.165H12.165H12.1649H12.1648H12.1648H12.1647H12.1647H12.1646H12.1646H12.1645H12.1644H12.1644H12.1643H12.1643H12.1642H12.1641H12.1641H12.164H12.164H12.1639H12.1638H12.1638H12.1637H12.1637H12.1636H12.1636H12.1635H12.1634H12.1634H12.1633H12.1633H12.1632H12.1631H12.1631H12.163H12.163H12.1629H12.1629H12.1628H12.1627H12.1627H12.1626H12.1626H12.1625H12.1624H12.1624H12.1623H12.1623H12.1622H12.1621H12.1621H12.162H12.162H12.1619H12.1619H12.1618H12.1617H12.1617H12.1616H12.1616H12.1615H12.1614H12.1614H12.1613H12.1613H12.1612H12.1612H12.1611H12.161H12.161H12.1609H12.1609H12.1608H12.1607H12.1607H12.1606H12.1606H12.1605H12.1604H12.1604H12.1603H12.1603H12.1602H12.1602H12.1601H12.16H12.16H12.1599H12.1599H12.1598H12.1597H12.1597H12.1596H12.1596Z" stroke="#312E81" stroke-width="2"/>
<path d="M7.30688 20.2197L7.30689 20.2197L7.30154 20.2161C6.12391 19.4367 5.59961 18.4609 5.59961 17.5C5.59961 16.5373 6.12583 15.5511 7.30406 14.7622C8.60707 13.8985 10.3683 13.4375 12.1771 13.4375C13.9869 13.4375 15.7425 13.899 17.0343 14.7616L17.0349 14.7621C18.2083 15.5443 18.7396 16.5221 18.7396 17.48C18.7396 18.443 18.2131 19.4295 17.0341 20.2185C15.7309 21.087 13.9747 21.55 12.1696 21.55C10.3623 21.55 8.59778 21.086 7.30688 20.2197Z" stroke="#312E81" stroke-width="2"/>
</svg>
