<svg width="24" height="22" viewBox="0 0 24 22" fill="none" xmlns="http://www.w3.org/2000/svg">
<path d="M17.9536 0.894775C18.4959 0.894775 18.9366 1.34534 18.9366 1.89991C18.9366 2.45448 18.4959 2.90504 17.9536 2.90504L0.982969 2.92613C0.440625 2.92613 0 2.47509 0 1.92052C0 1.36643 0.440625 0.915386 0.982969 0.915386L17.9536 0.894775ZM12.3384 15.7312C11.9677 15.3501 11.97 14.7327 12.3422 14.3536C12.7144 13.9745 13.3186 13.9769 13.6894 14.3574L17.04 17.7846L17.055 7.88039C17.055 7.34355 17.4811 6.90737 18.0061 6.90737C18.5311 6.90737 18.9577 7.34355 18.9577 7.88039L18.9427 17.7736L22.3702 14.2688C22.7423 13.8882 23.3484 13.8882 23.7206 14.2688C24.0933 14.6498 24.0933 15.2696 23.7206 15.6502L18.6628 20.822C18.2869 21.2012 17.6831 21.1992 17.3123 20.8182L12.3384 15.7312ZM8.04469 17.149C8.58703 17.149 9.02766 17.5996 9.02766 18.1541C9.02766 18.7087 8.58703 19.1593 8.04469 19.1593L0.982969 19.1669C0.440625 19.1669 0 18.7164 0 18.1618C0 17.6077 0.440625 17.1567 0.982969 17.1567L8.04469 17.149ZM9.98203 8.967C10.5244 8.967 10.965 9.41756 10.965 9.97214C10.965 10.5267 10.5244 10.9773 9.98203 10.9773L0.982969 10.9883C0.440625 10.9883 0 10.5373 0 9.98268C0 9.42859 0.440625 8.97755 0.982969 8.97755L9.98203 8.967Z" fill="#ECF0F3"/>
</svg>
