<svg width="24" height="25" viewBox="0 0 24 25" fill="none" xmlns="http://www.w3.org/2000/svg">
<path d="M12 22.75C17.5228 22.75 22 18.2728 22 12.75C22 7.22715 17.5228 2.75 12 2.75C6.47715 2.75 2 7.22715 2 12.75C2 18.2728 6.47715 22.75 12 22.75Z" stroke="#312E81" stroke-width="2" stroke-linecap="round" stroke-linejoin="round"/>
<path d="M9.09009 9.75002C9.32519 9.08169 9.78924 8.51813 10.4 8.15915C11.0108 7.80018 11.729 7.66896 12.4273 7.78873C13.1255 7.90851 13.7589 8.27154 14.2152 8.81355C14.6714 9.35555 14.9211 10.0415 14.9201 10.75C14.9201 12.75 11.9201 13.75 11.9201 13.75" stroke="#312E81" stroke-width="2" stroke-linecap="round" stroke-linejoin="round"/>
<path d="M12 17.75H12.01" stroke="#312E81" stroke-width="2" stroke-linecap="round" stroke-linejoin="round"/>
</svg>
