<svg width="27" height="24" viewBox="0 0 27 24" fill="none" xmlns="http://www.w3.org/2000/svg">
<path d="M0.612411 0.5H26.3857C26.7249 0.5 26.9998 0.768585 26.9998 1.10008C26.9998 1.28257 26.9165 1.44595 26.7849 1.55609L16.4973 11.5579V20.1413C16.4973 20.379 16.356 20.5842 16.151 20.6815L11.2982 23.4193C11.0053 23.5848 10.6304 23.4871 10.4606 23.2011C10.4045 23.1065 10.3779 23.0032 10.3782 22.901H10.3768V11.556L0.178011 1.52217C-0.0606116 1.28772 -0.059513 0.908782 0.180428 0.675836C0.29996 0.559686 0.456185 0.501718 0.612411 0.501718V0.5ZM24.8999 1.70037H2.08568L11.3929 10.857C11.5229 10.9669 11.6051 11.1296 11.6051 11.3108V21.8629L15.2688 19.7965V11.3108H15.2706C15.2706 11.1571 15.3308 11.0034 15.4512 10.8864L24.8999 1.70037Z" fill="#ECF0F3"/>
</svg>
