<svg width="16" height="22" viewBox="0 0 16 22" fill="none" xmlns="http://www.w3.org/2000/svg">
<path d="M8.15957 9.62H8.15939H8.15922H8.15904H8.15887H8.15869H8.15852H8.15835H8.15817H8.158H8.15782H8.15765H8.15748H8.1573H8.15713H8.15696H8.15679H8.15661H8.15644H8.15627H8.1561H8.15593H8.15576H8.15559H8.15542H8.15524H8.15507H8.1549H8.15473H8.15457H8.1544H8.15423H8.15406H8.15389H8.15372H8.15355H8.15338H8.15322H8.15305H8.15288H8.15271H8.15255H8.15238H8.15221H8.15204H8.15188H8.15171H8.15155H8.15138H8.15121H8.15105H8.15088H8.15072H8.15055H8.15039H8.15022H8.15006H8.14989H8.14973H8.14957H8.1494H8.14924H8.14908H8.14891H8.14875H8.14859H8.14842H8.14826H8.1481H8.14794H8.14778H8.14761H8.14745H8.14729H8.14713H8.14697H8.14681H8.14665H8.14648H8.14632H8.14616H8.146H8.14584H8.14568H8.14552H8.14536H8.1453C8.04788 9.6102 7.95172 9.61055 7.86254 9.61788C5.53083 9.51158 3.80957 7.68192 3.80957 5.44C3.80957 3.13228 5.69186 1.25 7.99957 1.25C10.3067 1.25 12.1887 3.13136 12.1896 5.43831C12.1805 7.71022 10.4104 9.53979 8.17259 9.62H8.17258H8.17252H8.17246H8.1724H8.17234H8.17229H8.17223H8.17217H8.17211H8.17205H8.17199H8.17193H8.17188H8.17182H8.17176H8.1717H8.17164H8.17158H8.17152H8.17146H8.17141H8.17135H8.17129H8.17123H8.17117H8.17111H8.17105H8.171H8.17094H8.17088H8.17082H8.17076H8.1707H8.17064H8.17059H8.17053H8.17047H8.17041H8.17035H8.17029H8.17023H8.17018H8.17012H8.17006H8.17H8.16994H8.16988H8.16982H8.16977H8.16971H8.16965H8.16959H8.16953H8.16947H8.16941H8.16936H8.1693H8.16924H8.16918H8.16912H8.16906H8.169H8.16895H8.16889H8.16883H8.16877H8.16871H8.16865H8.16859H8.16854H8.16848H8.16842H8.16836H8.1683H8.16824H8.16818H8.16812H8.16807H8.16801H8.16795H8.16789H8.16783H8.16777H8.16771H8.16766H8.1676H8.16754H8.16748H8.16742H8.16736H8.1673H8.16725H8.16719H8.16713H8.16707H8.16701H8.16695H8.16689H8.16684H8.16678H8.16672H8.16666H8.1666H8.16654H8.16648H8.16643H8.16637H8.16631H8.16625H8.16619H8.16613H8.16607H8.16602H8.16596H8.1659H8.16584H8.16578H8.16572H8.16566H8.16561H8.16555H8.16549H8.16543H8.16537H8.16531H8.16525H8.1652H8.16514H8.16508H8.16502H8.16496H8.1649H8.16484H8.16478H8.16473H8.16467H8.16461H8.16455H8.16449H8.16443H8.16437H8.16432H8.16426H8.1642H8.16414H8.16408H8.16402H8.16396H8.16391H8.16385H8.16379H8.16373H8.16367H8.16361H8.16355H8.1635H8.16344H8.16338H8.16332H8.16326H8.1632H8.16314H8.16309H8.16303H8.16297H8.16291H8.16285H8.16279H8.16273H8.16268H8.16262H8.16256H8.1625H8.16244H8.16238H8.16232H8.16227H8.16221H8.16215H8.16209H8.16203H8.16197H8.16191H8.16186H8.1618H8.16174H8.16168H8.16162H8.16156H8.1615H8.16145H8.16139H8.16133H8.16127H8.16121H8.16115H8.16109H8.16104H8.16098H8.16092H8.16086H8.1608H8.16074H8.16068H8.16062H8.16057H8.16051H8.16045H8.16039H8.16033H8.16027H8.16021H8.16016H8.1601H8.16004H8.15998H8.15992H8.15986H8.1598H8.15975H8.15969H8.15963H8.15957Z" stroke="#312E81" stroke-width="2"/>
<path d="M3.30688 19.2197L3.30689 19.2197L3.30154 19.2161C2.12391 18.4367 1.59961 17.4609 1.59961 16.5C1.59961 15.5373 2.12583 14.5511 3.30406 13.7622C4.60707 12.8985 6.36834 12.4375 8.17711 12.4375C9.98693 12.4375 11.7425 12.899 13.0343 13.7616L13.0349 13.7621C14.2083 14.5443 14.7396 15.5221 14.7396 16.48C14.7396 17.443 14.2131 18.4295 13.0341 19.2185C11.7309 20.087 9.9747 20.55 8.16961 20.55C6.36232 20.55 4.59778 20.086 3.30688 19.2197Z" stroke="#312E81" stroke-width="2"/>
</svg>
