<svg width="21" height="20" viewBox="0 0 21 20" fill="none" xmlns="http://www.w3.org/2000/svg">
<g clip-path="url(#clip0_141_123)">
<path d="M15.1859 14.95C13.7614 16.0358 12.0268 16.6374 10.2359 16.6667C4.40255 16.6667 1.06921 10 1.06921 10C2.10579 8.06825 3.54349 6.38051 5.28588 5.05M8.48588 3.53333C9.05949 3.39907 9.64677 3.33195 10.2359 3.33333C16.0692 3.33333 19.4025 10 19.4025 10C18.8967 10.9463 18.2934 11.8373 17.6025 12.6583M12.0025 11.7667C11.7737 12.0123 11.4977 12.2093 11.191 12.3459C10.8843 12.4826 10.5533 12.556 10.2176 12.562C9.88195 12.5679 9.54852 12.5061 9.23722 12.3804C8.92593 12.2547 8.64315 12.0675 8.40575 11.8301C8.16836 11.5927 7.98121 11.31 7.85547 10.9987C7.72973 10.6874 7.66799 10.3539 7.67391 10.0183C7.67983 9.68258 7.7533 9.35154 7.88994 9.04487C8.02658 8.73821 8.22359 8.46221 8.46921 8.23333" stroke="#ECF0F3" stroke-linecap="round" stroke-linejoin="round"/>
<path d="M1.06921 0.833313L19.4025 19.1666" stroke="#ECF0F3" stroke-linecap="round" stroke-linejoin="round"/>
</g>
<defs>
<clipPath id="clip0_141_123">
<rect width="20" height="20" fill="white" transform="translate(0.23584)"/>
</clipPath>
</defs>
</svg>
