<svg width="21" height="20" viewBox="0 0 21 20" fill="none" xmlns="http://www.w3.org/2000/svg">
<g clip-path="url(#clip0_141_134)">
<path d="M8.56921 10.8333C8.92709 11.3118 9.38368 11.7077 9.90801 11.9941C10.4323 12.2806 11.0121 12.4509 11.6081 12.4936C12.204 12.5363 12.8022 12.4503 13.362 12.2415C13.9218 12.0327 14.4301 11.7059 14.8525 11.2833L17.3525 8.78335C18.1115 7.9975 18.5315 6.94499 18.522 5.85251C18.5125 4.76002 18.0743 3.71497 17.3018 2.94243C16.5293 2.1699 15.4842 1.7317 14.3917 1.7222C13.2992 1.71271 12.2467 2.13269 11.4609 2.89168L10.0275 4.31668" stroke="#ECF0F3" stroke-width="2" stroke-linecap="round" stroke-linejoin="round"/>
<path d="M11.9026 9.16665C11.5447 8.68821 11.0881 8.29233 10.5638 8.00587C10.0394 7.7194 9.45963 7.54905 8.86368 7.50637C8.26772 7.46369 7.66956 7.54968 7.10976 7.7585C6.54996 7.96732 6.04162 8.29409 5.61922 8.71665L3.11922 11.2167C2.36023 12.0025 1.94025 13.055 1.94974 14.1475C1.95924 15.24 2.39744 16.285 3.16997 17.0576C3.94251 17.8301 4.98756 18.2683 6.08005 18.2778C7.17253 18.2873 8.22504 17.8673 9.01088 17.1083L10.4359 15.6833" stroke="#ECF0F3" stroke-width="2" stroke-linecap="round" stroke-linejoin="round"/>
</g>
<defs>
<clipPath id="clip0_141_134">
<rect width="20" height="20" fill="white" transform="translate(0.23584)"/>
</clipPath>
</defs>
</svg>
