<svg width="13" height="18" viewBox="0 0 13 18" fill="none" xmlns="http://www.w3.org/2000/svg">
<path d="M6.36886 8.18335H6.36871H6.36856H6.36842H6.36827H6.36813H6.36798H6.36783H6.36769H6.36754H6.3674H6.36726H6.36711H6.36697H6.36682H6.36668H6.36654H6.36639H6.36625H6.36611H6.36596H6.36582H6.36568H6.36554H6.36539H6.36525H6.36511H6.36497H6.36483H6.36468H6.36454H6.3644H6.36426H6.36412H6.36398H6.36384H6.3637H6.36356H6.36342H6.36328H6.36314H6.363H6.36286H6.36272H6.36258H6.36245H6.36231H6.36217H6.36203H6.36189H6.36175H6.36162H6.36148H6.36134H6.3612H6.36107H6.36093H6.36079H6.36066H6.36052H6.36038H6.36025H6.36011H6.35997H6.35984H6.3597H6.35957H6.35943H6.3593H6.35916H6.35903H6.35889H6.35876H6.35862H6.35849H6.35835H6.35822H6.35808H6.35795H6.35782H6.35768H6.35755H6.35742H6.35728H6.35715H6.35702H6.35688H6.35675H6.35662H6.35649H6.35635H6.35622H6.35609H6.35596H6.35583H6.35569H6.35556H6.35543H6.3553H6.35517H6.35504H6.35491H6.35477H6.35464H6.35451H6.35438H6.35425H6.35412H6.35399H6.35386H6.35373H6.3536H6.35347H6.35334H6.35321H6.35308H6.35295H6.35282H6.35269H6.35257H6.35244H6.35231H6.35218H6.35205H6.35192H6.35179H6.35166H6.35154H6.35141H6.35128H6.35115H6.35102H6.3509H6.35077H6.35064H6.35051H6.35039H6.35026H6.35013H6.35H6.34988H6.34975H6.34962H6.3495H6.34937H6.34924H6.34912H6.34899H6.34886H6.34874H6.34861H6.34848H6.34836H6.34823H6.3481H6.34798H6.34785H6.34773H6.3476H6.34748H6.34735H6.34723H6.3471H6.34697H6.34685H6.34672H6.3466H6.34647H6.34635H6.34622H6.3461H6.34597H6.34585H6.34573H6.3456H6.34548H6.34535H6.34523H6.3451H6.34498H6.34485H6.34473H6.34461H6.34448H6.34436H6.34423H6.34411H6.34399H6.34386H6.34374H6.34361H6.34349H6.34337H6.34324H6.34312H6.343H6.34287H6.34275H6.34263H6.3425H6.34238H6.34226H6.34213H6.34201H6.34189H6.34176H6.34164H6.34152H6.3414H6.34127H6.34115H6.34103H6.3409H6.34078H6.34066H6.34054H6.34041H6.34029H6.34017H6.34004H6.33992H6.3398H6.33968H6.33955H6.33943H6.33931H6.33919H6.33907H6.33894H6.33886C6.26785 8.17492 6.19549 8.1755 6.12935 8.18223C3.99885 8.09684 2.41052 6.42287 2.41052 4.36669C2.41052 2.2595 4.12833 0.541687 6.23552 0.541687C8.34239 0.541687 10.06 2.25897 10.0605 4.36572C10.0527 6.43835 8.43442 8.11314 6.38556 8.18335H6.38555H6.38551H6.38546H6.38541H6.38536H6.38531H6.38526H6.38521H6.38516H6.38512H6.38507H6.38502H6.38497H6.38492H6.38487H6.38482H6.38477H6.38472H6.38468H6.38463H6.38458H6.38453H6.38448H6.38443H6.38438H6.38433H6.38428H6.38424H6.38419H6.38414H6.38409H6.38404H6.38399H6.38394H6.38389H6.38385H6.3838H6.38375H6.3837H6.38365H6.3836H6.38355H6.3835H6.38346H6.38341H6.38336H6.38331H6.38326H6.38321H6.38316H6.38311H6.38306H6.38302H6.38297H6.38292H6.38287H6.38282H6.38277H6.38272H6.38267H6.38263H6.38258H6.38253H6.38248H6.38243H6.38238H6.38233H6.38228H6.38223H6.38219H6.38214H6.38209H6.38204H6.38199H6.38194H6.38189H6.38184H6.38179H6.38175H6.3817H6.38165H6.3816H6.38155H6.3815H6.38145H6.3814H6.38136H6.38131H6.38126H6.38121H6.38116H6.38111H6.38106H6.38101H6.38096H6.38092H6.38087H6.38082H6.38077H6.38072H6.38067H6.38062H6.38057H6.38053H6.38048H6.38043H6.38038H6.38033H6.38028H6.38023H6.38018H6.38014H6.38009H6.38004H6.37999H6.37994H6.37989H6.37984H6.37979H6.37974H6.3797H6.37965H6.3796H6.37955H6.3795H6.37945H6.3794H6.37935H6.3793H6.37926H6.37921H6.37916H6.37911H6.37906H6.37901H6.37896H6.37891H6.37887H6.37882H6.37877H6.37872H6.37867H6.37862H6.37857H6.37852H6.37847H6.37843H6.37838H6.37833H6.37828H6.37823H6.37818H6.37813H6.37808H6.37804H6.37799H6.37794H6.37789H6.37784H6.37779H6.37774H6.37769H6.37764H6.3776H6.37755H6.3775H6.37745H6.3774H6.37735H6.3773H6.37725H6.37721H6.37716H6.37711H6.37706H6.37701H6.37696H6.37691H6.37686H6.37681H6.37677H6.37672H6.37667H6.37662H6.37657H6.37652H6.37647H6.37642H6.37638H6.37633H6.37628H6.37623H6.37618H6.37613H6.37608H6.37603H6.37598H6.37594H6.37589H6.37584H6.37579H6.37574H6.37569H6.37564H6.37559H6.37555H6.3755H6.37545H6.3754H6.37535H6.3753H6.37525H6.3752H6.37515H6.37511H6.37506H6.37501H6.37496H6.37491H6.37486H6.37481H6.37476H6.37471H6.37467H6.37462H6.37457H6.37452H6.37447H6.37442H6.37437H6.37432H6.37428H6.37423H6.37418H6.37413H6.37408H6.37403H6.37398H6.37393H6.37388H6.37384H6.37379H6.37374H6.37369H6.37364H6.37359H6.37354H6.37349H6.37345H6.3734H6.37335H6.3733H6.37325H6.3732H6.37315H6.3731H6.37305H6.37301H6.37296H6.37291H6.37286H6.37281H6.37276H6.37271H6.37266H6.37262H6.37257H6.37252H6.37247H6.37242H6.37237H6.37232H6.37227H6.37222H6.37218H6.37213H6.37208H6.37203H6.37198H6.37193H6.37188H6.37183H6.37179H6.37174H6.37169H6.37164H6.37159H6.37154H6.37149H6.37144H6.37139H6.37135H6.3713H6.37125H6.3712H6.37115H6.3711H6.37105H6.371H6.37095H6.37091H6.37086H6.37081H6.37076H6.37071H6.37066H6.37061H6.37056H6.37052H6.37047H6.37042H6.37037H6.37032H6.37027H6.37022H6.37017H6.37012H6.37008H6.37003H6.36998H6.36993H6.36988H6.36983H6.36978H6.36973H6.36969H6.36964H6.36959H6.36954H6.36949H6.36944H6.36939H6.36934H6.3693H6.36925H6.3692H6.36915H6.3691H6.36905H6.369H6.36895H6.3689H6.36886Z" stroke="#ECF0F3"/>
<path d="M2.13915 16.1265L2.13915 16.1265L2.13648 16.1248C1.08433 15.4284 0.568848 14.5205 0.568848 13.5834C0.568848 12.6454 1.08526 11.729 2.13773 11.0245C3.28922 10.261 4.82487 9.86462 6.38343 9.86462C7.94251 9.86462 9.47362 10.2612 10.6162 11.0242L10.6165 11.0244C11.6632 11.7222 12.1855 12.6311 12.1855 13.5667C12.1855 14.5048 11.669 15.4214 10.6162 16.1259C9.46455 16.8935 7.9331 17.2917 6.37718 17.2917C4.8202 17.2917 3.28127 16.8931 2.13915 16.1265Z" stroke="#ECF0F3"/>
</svg>
